<svg width="10" height="6" viewBox="0 0 10 6" fill="none" xmlns="http://www.w3.org/2000/svg">
<path d="M0.872044 2.234L4.11804 5.618C4.23146 5.73856 4.36836 5.83464 4.5203 5.90031C4.67224 5.96598 4.83602 5.99986 5.00154 5.99986C5.16707 5.99986 5.33085 5.96598 5.48279 5.90031C5.63473 5.83464 5.77162 5.73856 5.88504 5.618L9.13104 2.234C9.30788 2.05152 9.42819 1.82182 9.4775 1.57254C9.52681 1.32327 9.50301 1.06506 9.40896 0.828997C9.31492 0.592937 9.15464 0.389095 8.94743 0.242016C8.74022 0.0949365 8.49491 0.0108914 8.24104 0H1.75004C1.49657 0.011804 1.25193 0.0966892 1.04562 0.244419C0.839318 0.392149 0.680159 0.596413 0.587344 0.832574C0.494529 1.06873 0.472023 1.3267 0.522539 1.57537C0.573055 1.82404 0.694437 2.05277 0.872044 2.234Z" fill="#374151"/>
</svg>
