<svg width="16" height="16" viewBox="0 0 16 16" fill="none" xmlns="http://www.w3.org/2000/svg">
<path d="M0.250082 1.61C2.57008 4.59 6.00008 9 6.00008 9V14C6.00166 14.5299 6.21289 15.0377 6.58762 15.4125C6.96235 15.7872 7.47014 15.9984 8.00008 16C8.53003 15.9984 9.03782 15.7872 9.41255 15.4125C9.78728 15.0377 9.9985 14.5299 10.0001 14V9C10.0001 9 13.4301 4.59 15.7501 1.61C15.8644 1.46148 15.9347 1.28382 15.953 1.09728C15.9712 0.910744 15.9366 0.722832 15.8532 0.554982C15.7698 0.387132 15.6409 0.2461 15.4812 0.147972C15.3216 0.049844 15.1375 -0.00142986 14.9501 -1.46772e-06H1.04008C0.853507 0.000446164 0.670778 0.0530809 0.512554 0.151952C0.35433 0.250824 0.226921 0.391988 0.144733 0.559486C0.0625448 0.726984 0.0288547 0.914134 0.0474717 1.09978C0.0660887 1.28542 0.13627 1.46216 0.250082 1.61Z" fill="#0135B3"/>
</svg>
