<svg width="8" height="13" viewBox="0 0 8 13" fill="none" xmlns="http://www.w3.org/2000/svg">
<path d="M7.18964 11.6852C7.38867 11.4834 7.50024 11.2112 7.50024 10.9277C7.50024 10.6442 7.38867 10.3721 7.18964 10.1702L3.06464 6.00025L7.18964 1.83025C7.38867 1.62836 7.50025 1.35625 7.50025 1.07275C7.50025 0.789247 7.38867 0.517138 7.18964 0.315247C7.09181 0.215589 6.9751 0.13643 6.84632 0.0823917C6.71755 0.0283536 6.5793 0.000522533 6.43964 0.000522521C6.29999 0.000522509 6.16174 0.0283536 6.03296 0.0823916C5.90419 0.13643 5.78748 0.215589 5.68964 0.315246L0.807643 5.24825C0.608615 5.45014 0.497039 5.72225 0.497039 6.00575C0.497039 6.28924 0.608615 6.56136 0.807642 6.76325L5.69064 11.6962C5.89088 11.8936 6.1613 12.0033 6.44242 12.0012C6.72354 11.9991 6.99232 11.8855 7.18964 11.6852Z" fill="currentColor"/>
</svg>
