<svg width="8" height="13" viewBox="0 0 8 13" fill="none" xmlns="http://www.w3.org/2000/svg">
<path d="M0.807673 0.316706C0.608645 0.518597 0.49707 0.790707 0.49707 1.07421C0.49707 1.35771 0.608645 1.62982 0.807673 1.83171L4.93267 6.00171L0.807673 10.1717C0.608645 10.3736 0.49707 10.6457 0.49707 10.9292C0.49707 11.2127 0.608645 11.4848 0.807673 11.6867C0.905506 11.7864 1.02222 11.8655 1.15099 11.9196C1.27977 11.9736 1.41802 12.0014 1.55767 12.0014C1.69733 12.0014 1.83558 11.9736 1.96435 11.9196C2.09313 11.8655 2.20984 11.7864 2.30767 11.6867L7.18967 6.75371C7.3887 6.55182 7.50028 6.27971 7.50028 5.99621C7.50028 5.71271 7.3887 5.4406 7.18967 5.23871L2.30667 0.305706C2.10643 0.10839 1.83601 -0.00130189 1.55489 0.000761C1.27378 0.00282389 1.005 0.116472 0.807673 0.316706Z" fill="currentColor"/>
</svg>
