<svg width="13" height="8" viewBox="0 0 13 8" fill="none" xmlns="http://www.w3.org/2000/svg">
<path d="M12.683 0.810114C12.4812 0.611086 12.209 0.499512 11.9255 0.499512C11.6421 0.499512 11.3699 0.611086 11.168 0.810114L6.99805 4.93511L2.82805 0.810114C2.62616 0.611086 2.35405 0.499512 2.07055 0.499512C1.78705 0.499512 1.51494 0.611086 1.31305 0.810114C1.21339 0.907947 1.13423 1.02466 1.08019 1.15343C1.02616 1.28221 0.998325 1.42046 0.998325 1.56011C0.998325 1.69977 1.02616 1.83802 1.08019 1.96679C1.13423 2.09557 1.21339 2.21228 1.31305 2.31011L6.24605 7.19211C6.44794 7.39114 6.72005 7.50272 7.00355 7.50272C7.28705 7.50272 7.55916 7.39114 7.76105 7.19211L12.694 2.30911C12.8914 2.10887 13.0011 1.83845 12.999 1.55734C12.9969 1.27622 12.8833 1.00744 12.683 0.810114Z" fill="black"/>
</svg>
