<svg width="13" height="8" viewBox="0 0 13 8" fill="none" xmlns="http://www.w3.org/2000/svg">
<path d="M1.31426 7.19196C1.51616 7.39099 1.78827 7.50256 2.07176 7.50256C2.35526 7.50256 2.62737 7.39099 2.82927 7.19196L6.99927 3.06696L11.1693 7.19196C11.3712 7.39099 11.6433 7.50256 11.9268 7.50256C12.2103 7.50256 12.4824 7.39099 12.6843 7.19196C12.7839 7.09413 12.8631 6.97741 12.9171 6.84864C12.9712 6.71987 12.999 6.58161 12.999 6.44196C12.999 6.30231 12.9712 6.16406 12.9171 6.03528C12.8631 5.90651 12.7839 5.78979 12.6843 5.69196L7.75127 0.809961C7.54937 0.610934 7.27726 0.499358 6.99377 0.499358C6.71027 0.499358 6.43816 0.610934 6.23626 0.809961L1.30327 5.69296C1.10595 5.8932 0.996257 6.16362 0.99832 6.44474C1.00038 6.72585 1.11403 6.99464 1.31426 7.19196Z" fill="black"/>
</svg>
