<svg width="16" height="15" viewBox="0 0 16 15" fill="none" xmlns="http://www.w3.org/2000/svg">
<path d="M14.692 0.322003C14.5938 0.223074 14.4769 0.144559 14.3482 0.0909805C14.2195 0.0374018 14.0814 0.00981808 13.942 0.00981808C13.8026 0.00981808 13.6645 0.0374018 13.5358 0.0909805C13.4071 0.144559 13.2902 0.223074 13.192 0.322003L7.999 5.503L2.807 0.311003C2.60809 0.112091 2.3383 0.000343321 2.057 0.000343323C1.77569 0.000343325 1.50591 0.112091 1.307 0.311003C1.10809 0.509916 0.996338 0.779699 0.996338 1.061C0.996338 1.34231 1.10809 1.61209 1.307 1.811L6.499 7.003L1.31 12.193C1.11109 12.3919 0.999338 12.6617 0.999338 12.943C0.999338 13.2243 1.11109 13.4941 1.31 13.693C1.50891 13.8919 1.77869 14.0037 2.06 14.0037C2.3413 14.0037 2.61109 13.8919 2.81 13.693L7.999 8.493L13.192 13.693C13.3909 13.8919 13.6607 14.0037 13.942 14.0037C14.2233 14.0037 14.4931 13.8919 14.692 13.693C14.8909 13.4941 15.0027 13.2243 15.0027 12.943C15.0027 12.6617 14.8909 12.3919 14.692 12.193L9.492 7L14.692 1.808C14.8859 1.60927 14.9944 1.34264 14.9944 1.065C14.9944 0.78737 14.8859 0.520733 14.692 0.322003V0.322003Z" fill="currentColor"/>
</svg>
