<svg width="14" height="14" viewBox="0 0 14 14" fill="none" xmlns="http://www.w3.org/2000/svg">
<path d="M13.2734 6.60666L7.38671 0.719995C7.14004 0.473328 6.80004 0.333328 6.44671 0.333328H1.66671C0.933374 0.333328 0.333374 0.933328 0.333374 1.66666V6.44666C0.333374 6.79999 0.473374 7.14 0.726707 7.38666L6.61337 13.2733C7.13337 13.7933 7.98004 13.7933 8.50004 13.2733L13.28 8.49333C13.8 7.97333 13.8 7.13333 13.2734 6.60666ZM3.33337 4.33333C2.78004 4.33333 2.33337 3.88666 2.33337 3.33333C2.33337 2.77999 2.78004 2.33333 3.33337 2.33333C3.88671 2.33333 4.33337 2.77999 4.33337 3.33333C4.33337 3.88666 3.88671 4.33333 3.33337 4.33333Z" fill="currentColor"/>
</svg>
