<svg width="18" height="18" viewBox="0 0 18 18" fill="none" xmlns="http://www.w3.org/2000/svg">
<path d="M12.5 1L12.0918 0.468004C12.0125 0.32722 11.8904 0.208807 11.739 0.126117C11.5877 0.043426 11.4132 -0.000253158 11.2353 4.04884e-06H6.68935C6.51212 -0.000483977 6.33831 0.0431554 6.18784 0.125924C6.03737 0.208693 5.91631 0.327246 5.83853 0.468004L5.5 1H1C0.447715 1 0 1.44772 0 2C0 2.55228 0.447715 3 1 3H17C17.5523 3 18 2.55228 18 2C18 1.44772 17.5523 1 17 1H12.5Z" fill="currentColor"/>
<path fill-rule="evenodd" clip-rule="evenodd" d="M2.12818 16.9579C2.04342 16.7531 1.99987 16.5336 2 16.312V4L16 3.99929V16.3123C16 16.5339 15.9563 16.7534 15.8714 16.9581C15.7866 17.1629 15.6622 17.3489 15.5053 17.5055C15.3485 17.6622 15.1624 17.7864 14.9575 17.8712C14.7526 17.9559 14.533 17.9994 14.3113 17.9993L3.68767 18C3.46596 18 3.24642 17.9563 3.04159 17.8715C2.83677 17.7866 2.65068 17.6623 2.49395 17.5055C2.33722 17.3488 2.21293 17.1627 2.12818 16.9579ZM5.75 7C5.33579 7 5 7.33579 5 7.75V14.25C5 14.6642 5.33579 15 5.75 15C6.16421 15 6.5 14.6642 6.5 14.25V7.75C6.5 7.33579 6.16421 7 5.75 7ZM8.25 7.75C8.25 7.33579 8.58579 7 9 7C9.41421 7 9.75 7.33579 9.75 7.75V14.25C9.75 14.6642 9.41421 15 9 15C8.58579 15 8.25 14.6642 8.25 14.25V7.75ZM12.25 7C11.8358 7 11.5 7.33579 11.5 7.75V14.25C11.5 14.6642 11.8358 15 12.25 15C12.6642 15 13 14.6642 13 14.25V7.75C13 7.33579 12.6642 7 12.25 7Z" fill="currentColor"/>
</svg>
