<svg width="18" height="14" viewBox="0 0 18 14" fill="none" xmlns="http://www.w3.org/2000/svg">
<path d="M5.79998 10.9L2.29998 7.4C2.20839 7.30654 2.09919 7.23217 1.97868 7.18118C1.85817 7.13019 1.72875 7.1036 1.59791 7.10294C1.46706 7.10228 1.33738 7.12756 1.21636 7.17733C1.09534 7.2271 0.985395 7.30037 0.89287 7.39289C0.800345 7.48542 0.727079 7.59536 0.677311 7.71638C0.627542 7.8374 0.602257 7.96708 0.602918 8.09793C0.603579 8.22878 0.630172 8.35819 0.681161 8.4787C0.732149 8.59921 0.806522 8.70841 0.899976 8.8L5.08998 13C5.27734 13.1862 5.53079 13.2908 5.79498 13.2908C6.05916 13.2908 6.31261 13.1862 6.49998 13L17.1 2.4C17.1934 2.30841 17.2678 2.19921 17.3188 2.0787C17.3698 1.95819 17.3964 1.82878 17.397 1.69793C17.3977 1.56708 17.3724 1.4374 17.3226 1.31638C17.2729 1.19537 17.1996 1.08542 17.1071 0.992891C17.0146 0.900366 16.9046 0.827101 16.7836 0.777332C16.6626 0.727563 16.5329 0.702278 16.402 0.702939C16.2712 0.7036 16.1418 0.730194 16.0213 0.781183C15.9008 0.832171 15.7916 0.906543 15.7 0.999998L5.79998 10.9Z" fill="currentColor"/>
</svg>
