<svg width="18" height="18" viewBox="0 0 18 18" fill="none" xmlns="http://www.w3.org/2000/svg">
<path d="M17.505 4.99299L15.884 6.61399C15.8447 6.65366 15.798 6.68515 15.7465 6.70664C15.695 6.72814 15.6398 6.7392 15.584 6.7392C15.5282 6.7392 15.4729 6.72814 15.4215 6.70664C15.37 6.68515 15.3232 6.65366 15.284 6.61399L11.384 2.71399C11.3443 2.67475 11.3128 2.62803 11.2913 2.57653C11.2698 2.52504 11.2588 2.46979 11.2588 2.41399C11.2588 2.35819 11.2698 2.30295 11.2913 2.25145C11.3128 2.19996 11.3443 2.15324 11.384 2.11399L13.005 0.492993C13.3219 0.177223 13.7511 -7.62939e-05 14.1985 -7.62939e-05C14.6459 -7.62939e-05 15.0751 0.177223 15.392 0.492993L17.505 2.60599C17.6621 2.76253 17.7867 2.94854 17.8717 3.15335C17.9568 3.35815 18.0005 3.57773 18.0005 3.79949C18.0005 4.02125 17.9568 4.24083 17.8717 4.44564C17.7867 4.65044 17.6621 4.83645 17.505 4.99299ZM9.99199 3.50599L0.758992 12.739L0.0139922 17.01C-0.00916003 17.1434 0.000108648 17.2805 0.041017 17.4096C0.0819254 17.5388 0.153275 17.6562 0.249051 17.7519C0.344828 17.8477 0.462225 17.9191 0.591348 17.96C0.720472 18.0009 0.857537 18.0101 0.990992 17.987L5.26299 17.238L14.495 8.00599C14.5347 7.96675 14.5662 7.92003 14.5876 7.86853C14.6091 7.81704 14.6202 7.76179 14.6202 7.70599C14.6202 7.65019 14.6091 7.59495 14.5876 7.54345C14.5662 7.49196 14.5347 7.44524 14.495 7.40599L10.595 3.50599C10.5151 3.42709 10.4073 3.38285 10.295 3.38285C10.1827 3.38285 10.0749 3.42709 9.99499 3.50599H9.99199ZM4.36299 11.948C4.31643 11.9024 4.27944 11.8479 4.25418 11.7878C4.22893 11.7277 4.21592 11.6632 4.21592 11.598C4.21592 11.5328 4.22893 11.4683 4.25418 11.4082C4.27944 11.3481 4.31643 11.2936 4.36299 11.248L9.77699 5.83699C9.86982 5.74417 9.99572 5.69202 10.127 5.69202C10.2583 5.69202 10.3842 5.74417 10.477 5.83699C10.5698 5.92982 10.622 6.05572 10.622 6.18699C10.622 6.31827 10.5698 6.44417 10.477 6.53699L5.05899 11.948C5.01337 11.9946 4.95891 12.0315 4.89881 12.0568C4.83872 12.0821 4.77418 12.0951 4.70899 12.0951C4.6438 12.0951 4.57927 12.0821 4.51917 12.0568C4.45907 12.0315 4.40461 11.9946 4.35899 11.948H4.36299ZM3.09399 14.904H4.77699V16.18L2.50899 16.58L1.41999 15.484L1.81999 13.216H3.09399V14.904Z" fill="currentColor"/>
</svg>
