<svg width="12" height="12" viewBox="0 0 12 12" fill="none" xmlns="http://www.w3.org/2000/svg">
<path d="M8.21333 0H3.78667C3.6119 0.00137355 3.44453 0.0707121 3.32 0.193333L0.193333 3.32C0.0707121 3.44453 0.00137355 3.6119 0 3.78667V8.20667C0.00131619 8.38341 0.0705361 8.55288 0.193333 8.68L3.31333 11.8C3.43876 11.9262 3.60876 11.998 3.78667 12H8.20667C8.38341 11.9987 8.55288 11.9295 8.68 11.8067L11.8 8.68667C11.8621 8.62459 11.9112 8.55076 11.9444 8.46948C11.9776 8.38821 11.9942 8.30112 11.9933 8.21333V3.78667C11.992 3.60993 11.9228 3.44046 11.8 3.31333L8.68 0.193333C8.55547 0.0707121 8.3881 0.00137355 8.21333 0ZM6 9.53333C5.82859 9.53333 5.66103 9.4825 5.51851 9.38727C5.37598 9.29204 5.2649 9.15669 5.1993 8.99833C5.13371 8.83996 5.11655 8.66571 5.14999 8.49759C5.18343 8.32947 5.26597 8.17505 5.38717 8.05384C5.50838 7.93264 5.66281 7.85009 5.83092 7.81665C5.99904 7.78321 6.1733 7.80038 6.33166 7.86597C6.49002 7.93157 6.62538 8.04265 6.72061 8.18517C6.81584 8.32769 6.86667 8.49526 6.86667 8.66667C6.86667 8.89652 6.77536 9.11696 6.61283 9.27949C6.45029 9.44202 6.22985 9.53333 6 9.53333ZM6 6.66667C5.82319 6.66667 5.65362 6.59643 5.5286 6.4714C5.40357 6.34638 5.33333 6.17681 5.33333 6V3.33333C5.33333 3.15652 5.40357 2.98695 5.5286 2.86193C5.65362 2.7369 5.82319 2.66667 6 2.66667C6.17681 2.66667 6.34638 2.7369 6.4714 2.86193C6.59643 2.98695 6.66667 3.15652 6.66667 3.33333V6C6.66667 6.17681 6.59643 6.34638 6.4714 6.4714C6.34638 6.59643 6.17681 6.66667 6 6.66667Z" fill="currentColor"/>
</svg>
