<svg width="14" height="12" viewBox="0 0 14 12" fill="none" xmlns="http://www.w3.org/2000/svg">
<path fill-rule="evenodd" clip-rule="evenodd" d="M12.02 11.6693C12.2539 11.6691 12.4837 11.6073 12.6862 11.4902C12.8887 11.3731 13.0568 11.2047 13.1737 11.0021C13.2905 10.7994 13.352 10.5696 13.352 10.3357C13.3519 10.1017 13.2903 9.87193 13.1733 9.66934L8.15333 0.99867C8.03613 0.796618 7.86789 0.628903 7.66548 0.512317C7.46307 0.395731 7.23359 0.334366 7 0.334366C6.76641 0.334366 6.53693 0.395731 6.33452 0.512317C6.1321 0.628903 5.96387 0.796618 5.84667 0.99867L0.826666 9.66934C0.7097 9.87193 0.648093 10.1017 0.648033 10.3357C0.647973 10.5696 0.709462 10.7994 0.826324 11.0021C0.943187 11.2047 1.11131 11.3731 1.31381 11.4902C1.51631 11.6073 1.74607 11.6691 1.98 11.6693H12.02ZM7 7.00267C6.82319 7.00267 6.65362 6.93243 6.52859 6.80741C6.40357 6.68238 6.33333 6.51282 6.33333 6.336V5.00267C6.33333 4.82586 6.40357 4.65629 6.52859 4.53127C6.65362 4.40624 6.82319 4.336 7 4.336C7.17681 4.336 7.34638 4.40624 7.4714 4.53127C7.59643 4.65629 7.66667 4.82586 7.66667 5.00267V6.336C7.66667 6.51282 7.59643 6.68238 7.4714 6.80741C7.34638 6.93243 7.17681 7.00267 7 7.00267ZM7 9.66934C7.13185 9.66934 7.26075 9.63024 7.37038 9.55698C7.48001 9.48373 7.56546 9.37961 7.61592 9.25779C7.66638 9.13598 7.67958 9.00193 7.65386 8.87261C7.62813 8.74329 7.56464 8.6245 7.4714 8.53127C7.37817 8.43803 7.25938 8.37454 7.13006 8.34881C7.00074 8.32309 6.86669 8.33629 6.74488 8.38675C6.62306 8.43721 6.51894 8.52266 6.44569 8.63229C6.37243 8.74192 6.33333 8.87082 6.33333 9.00267C6.33333 9.17948 6.40357 9.34905 6.52859 9.47408C6.65362 9.5991 6.82319 9.66934 7 9.66934Z" fill="currentColor"/>
</svg>
