<svg width="14" height="13" viewBox="0 0 14 13" fill="none" xmlns="http://www.w3.org/2000/svg">
<path d="M12.2199 4L10.7066 2.48667C10.7533 2.20667 10.8266 1.94667 10.9199 1.72C10.9933 1.54667 11.0199 1.34667 10.9799 1.14C10.8933 0.660002 10.4266 0.326668 9.93325 0.333335C8.87325 0.353335 7.93325 0.873335 7.33325 1.66667H3.99992C1.97325 1.66667 0.333252 3.30667 0.333252 5.33333C0.333252 6.83333 1.24659 10.32 1.71992 12.0267C1.87992 12.6 2.40659 13 3.00659 13H4.33325C5.06659 13 5.66659 12.4 5.66659 11.6667H6.99992C6.99992 12.4 7.59992 13 8.33325 13H9.67325C10.2599 13 10.7799 12.6133 10.9533 12.0467L11.7866 9.27333L13.2133 8.79333C13.4866 8.7 13.6666 8.44667 13.6666 8.16V4.66667C13.6666 4.3 13.3666 4 12.9999 4H12.2199ZM6.99992 5H4.99992C4.63325 5 4.33325 4.7 4.33325 4.33333C4.33325 3.96667 4.63325 3.66667 4.99992 3.66667H6.99992C7.36659 3.66667 7.66659 3.96667 7.66659 4.33333C7.66659 4.7 7.36659 5 6.99992 5ZM9.66659 6.33333C9.29992 6.33333 8.99992 6.03333 8.99992 5.66667C8.99992 5.3 9.29992 5 9.66659 5C10.0333 5 10.3333 5.3 10.3333 5.66667C10.3333 6.03333 10.0333 6.33333 9.66659 6.33333Z" fill="currentColor"/>
</svg>
