<svg width="14" height="14" viewBox="0 0 14 14" fill="none" xmlns="http://www.w3.org/2000/svg">
<path fill-rule="evenodd" clip-rule="evenodd" d="M0.333374 7C0.333374 5.68146 0.724367 4.39252 1.45691 3.2962C2.18945 2.19987 3.23064 1.34539 4.44882 0.840801C5.66699 0.336217 7.00744 0.204195 8.30064 0.461429C9.59385 0.718664 10.7817 1.3536 11.7141 2.28595C12.6464 3.2183 13.2814 4.40619 13.5386 5.6994C13.7958 6.9926 13.6638 8.33305 13.1592 9.55122C12.6547 10.7694 11.8002 11.8106 10.7038 12.5431C9.60751 13.2757 8.31858 13.6667 7.00004 13.6667C6.12456 13.6667 5.25766 13.4942 4.44882 13.1592C3.63998 12.8242 2.90505 12.3331 2.286 11.714C1.03575 10.4638 0.333374 8.76811 0.333374 7ZM5.66671 8.44666L9.58671 4.52666C9.71258 4.40176 9.88272 4.33168 10.06 4.33168C10.2374 4.33168 10.4075 4.40176 10.5334 4.52666C10.6575 4.65157 10.7272 4.82054 10.7272 4.99666C10.7272 5.17279 10.6575 5.34176 10.5334 5.46666L6.14004 9.86C6.01513 9.98417 5.84616 10.0539 5.67004 10.0539C5.49392 10.0539 5.32495 9.98417 5.20004 9.86L3.47337 8.13333C3.40359 8.07357 3.34691 8.00002 3.30689 7.91731C3.26687 7.8346 3.24439 7.74451 3.24084 7.6527C3.2373 7.56089 3.25277 7.46933 3.28628 7.38378C3.3198 7.29823 3.37064 7.22053 3.43561 7.15556C3.50058 7.09059 3.57828 7.03976 3.66383 7.00624C3.74938 6.97272 3.84093 6.95725 3.93274 6.9608C4.02456 6.96434 4.11464 6.98683 4.19735 7.02685C4.28006 7.06686 4.35361 7.12354 4.41337 7.19333L5.66671 8.44666Z" fill="currentColor"/>
</svg>
