<svg width="14" height="14" viewBox="0 0 14 14" fill="none" xmlns="http://www.w3.org/2000/svg">
<path d="M7.00004 0.333328V1.66666C9.94004 1.66666 12.3334 4.06 12.3334 7C12.3334 9.93999 9.94004 12.3333 7.00004 12.3333V13.6667C10.68 13.6667 13.6667 10.68 13.6667 7C13.6667 3.31999 10.68 0.333328 7.00004 0.333328Z" fill="currentColor"/>
<path d="M7.00004 9L10.197 5.80307C10.4567 5.54337 10.4571 5.12228 10.1984 4.86167C9.93829 4.59975 9.51463 4.59873 9.25363 4.85974L7.00004 7.11333V9Z" fill="currentColor"/>
<path d="M7.00004 0.333328C6.12877 0.333334 5.26158 0.504145 4.44882 0.840801C3.23064 1.34539 2.18945 2.19987 1.45691 3.2962C0.724367 4.39252 0.333374 5.68146 0.333374 7C0.333374 8.76811 1.03575 10.4638 2.286 11.714C2.90505 12.3331 3.63998 12.8242 4.44882 13.1592C5.25766 13.4942 6.12456 13.6667 7.00004 13.6667C7.00198 13.6667 7.00392 13.6667 7.00587 13.6667H7.00004V9L6.14004 9.86C6.01513 9.98417 5.84616 10.0539 5.67004 10.0539C5.49392 10.0539 5.32495 9.98417 5.20004 9.86L3.47337 8.13333C3.40359 8.07357 3.34691 8.00002 3.30689 7.91731C3.26687 7.8346 3.24439 7.74451 3.24084 7.6527C3.2373 7.56089 3.25277 7.46933 3.28628 7.38378C3.3198 7.29823 3.37064 7.22053 3.43561 7.15556C3.50058 7.09059 3.57828 7.03976 3.66383 7.00624C3.74938 6.97272 3.84093 6.95725 3.93274 6.9608C4.02456 6.96435 4.11464 6.98683 4.19735 7.02685C4.28006 7.06686 4.35361 7.12354 4.41337 7.19333L5.66671 8.44666L7.00004 7.11333V0.333328Z" fill="currentColor"/>
</svg>
