<svg width="24" height="24" viewBox="0 0 24 24" fill="none" xmlns="http://www.w3.org/2000/svg">
<path fill-rule="evenodd" clip-rule="evenodd" d="M13.17 2C13.7 2 14.21 2.21 14.59 2.59L19.41 7.42C19.79 7.79 20 8.3 20 8.83V20C20 21.1 19.1 22 18 22H5.99C4.89 22 4 21.1 4 20V4C4 2.9 4.9 2 6 2H13.17ZM13 3.5V8C13 8.55 13.45 9 14 9H18.5L13 3.5ZM9.69231 13.5C9.69231 14.33 9.07385 15 8.30769 15H7.38462V16.25C7.38462 16.66 7.07077 17 6.69231 17C6.31385 17 6 16.66 6 16.25V12C6 11.45 6.41538 11 6.92308 11H8.30769C9.07385 11 9.69231 11.67 9.69231 12.5V13.5ZM8.30784 13.5H7.38477V12.5H8.30784V13.5ZM14.3077 15.5C14.3077 16.33 13.6892 17 12.9231 17H11.0769C10.8185 17 10.6154 16.78 10.6154 16.5V11.5C10.6154 11.22 10.8185 11 11.0769 11H12.9231C13.6892 11 14.3077 11.67 14.3077 12.5V15.5ZM12 15.5H12.9231V12.5H12V15.5ZM18 11.75C18 12.16 17.6862 12.5 17.3077 12.5H16.6154V13.5H17.3077C17.6862 13.5 18 13.84 18 14.25C18 14.66 17.6862 15 17.3077 15H16.6154V16.25C16.6154 16.66 16.3015 17 15.9231 17C15.5446 17 15.2308 16.66 15.2308 16.25V12C15.2308 11.45 15.6462 11 16.1538 11H17.3077C17.6862 11 18 11.34 18 11.75Z" fill="currentColor"/>
</svg>
