<svg width="14" height="14" viewBox="0 0 14 14" fill="none" xmlns="http://www.w3.org/2000/svg">
<path d="M6.99992 0.333377C5.68138 0.333377 4.39245 0.72437 3.29612 1.45691C2.19979 2.18946 1.34531 3.23065 0.840725 4.44882C0.336141 5.667 0.204118 7.00744 0.461353 8.30065C0.718588 9.59385 1.35353 10.7817 2.28588 11.7141C3.21823 12.6464 4.40611 13.2814 5.69932 13.5386C6.99253 13.7958 8.33297 13.6638 9.55114 13.1592C10.7693 12.6547 11.8105 11.8002 12.5431 10.7038C13.2756 9.60752 13.6666 8.31859 13.6666 7.00004C13.6674 6.12434 13.4955 5.25708 13.1607 4.44789C12.826 3.63869 12.3349 2.90345 11.7157 2.28424C11.0965 1.66502 10.3613 1.17399 9.55208 0.839239C8.74288 0.504487 7.87562 0.332588 6.99992 0.333377ZM9.86659 9.86671C9.74168 9.99088 9.57271 10.0606 9.39659 10.0606C9.22046 10.0606 9.0515 9.99088 8.92659 9.86671L6.99992 7.94004L5.07325 9.86671C5.01349 9.9365 4.93994 9.99318 4.85723 10.0332C4.77452 10.0732 4.68444 10.0957 4.59262 10.0992C4.50081 10.1028 4.40926 10.0873 4.32371 10.0538C4.23816 10.0203 4.16046 9.96945 4.09549 9.90448C4.03052 9.83951 3.97968 9.76181 3.94616 9.67626C3.91265 9.59071 3.89718 9.49916 3.90072 9.40734C3.90427 9.31553 3.92676 9.22544 3.96677 9.14273C4.00679 9.06002 4.06347 8.98648 4.13325 8.92671L6.05992 7.00004L4.13325 5.07338C4.02404 4.94584 3.96697 4.78179 3.97345 4.61401C3.97993 4.44622 4.04948 4.28706 4.16821 4.16834C4.28694 4.04961 4.4461 3.98005 4.61389 3.97357C4.78167 3.96709 4.94572 4.02416 5.07325 4.13338L6.99992 6.06004L8.92659 4.13338C9.05412 4.02416 9.21817 3.96709 9.38596 3.97357C9.55374 3.98005 9.7129 4.04961 9.83163 4.16834C9.95036 4.28706 10.0199 4.44622 10.0264 4.61401C10.0329 4.78179 9.97581 4.94584 9.86659 5.07338L7.93992 7.00004L9.86659 8.92671C9.98854 9.05278 10.0567 9.22131 10.0567 9.39671C10.0567 9.57211 9.98854 9.74064 9.86659 9.86671Z" fill="#4B5563"/>
</svg>
