<svg width="24" height="24" viewBox="0 0 24 24" fill="none" xmlns="http://www.w3.org/2000/svg">
<path fill-rule="evenodd" clip-rule="evenodd" d="M2.75401 10.408C2.80596 11.7562 3.22674 13.0642 3.97054 14.1899C4.71434 15.3155 5.75267 16.2155 6.97249 16.7919C8.19231 17.3684 9.54689 17.5992 10.8888 17.4592C12.2307 17.3192 13.5084 16.8138 14.583 15.998L19.476 20.891C19.6646 21.0731 19.9172 21.1739 20.1794 21.1717C20.4416 21.1694 20.6924 21.0642 20.8778 20.8788C21.0632 20.6934 21.1684 20.4426 21.1707 20.1804C21.173 19.9182 21.0722 19.6656 20.89 19.477L15.997 14.584C16.7121 13.6423 17.1903 12.5424 17.3913 11.3772C17.5922 10.2119 17.51 9.01542 17.1516 7.88858C16.7933 6.76175 16.1692 5.7376 15.332 4.90251C14.4949 4.06742 13.4692 3.44586 12.3415 3.09025C11.2138 2.73464 10.0171 2.65541 8.85232 2.85923C7.68756 3.06304 6.58889 3.54394 5.64894 4.26136C4.70899 4.97879 3.95533 5.91171 3.4515 6.98145C2.94767 8.0512 2.70845 9.22641 2.75401 10.408ZM5.96901 13.532C5.1658 12.5532 4.73393 11.3222 4.74955 10.0561C4.76517 8.78996 5.22727 7.57001 6.05439 6.61128C6.88151 5.65256 8.02054 5.01662 9.27068 4.81556C10.5208 4.61451 11.8018 4.86125 12.8878 5.5123C13.9738 6.16334 14.7951 7.17689 15.2069 8.37426C15.6187 9.57162 15.5946 10.8759 15.1388 12.0573C14.683 13.2386 13.8248 14.2211 12.7154 14.8315C11.6061 15.4419 10.3169 15.6411 9.07501 15.394C7.85547 15.1513 6.7578 14.4932 5.96901 13.532Z" fill="currentColor"/>
</svg>
